<svg xmlns="http://www.w3.org/2000/svg" width="24" height="24" viewBox="0 0 24 24">
  <g fill="#979797">
    <path d="M0.792893219,2.20710678 L21.7928932,23.2071068 C22.1834175,23.5976311 22.8165825,23.5976311 23.2071068,23.2071068 C23.5976311,22.8165825 23.5976311,22.1834175 23.2071068,21.7928932 L2.20710678,0.792893219 C1.81658249,0.402368927 1.18341751,0.402368927 0.792893219,0.792893219 C0.402368927,1.18341751 0.402368927,1.81658249 0.792893219,2.20710678 Z"/>
    <path d="M21.7928932,0.792893219 L0.792893219,21.7928932 C0.402368927,22.1834175 0.402368927,22.8165825 0.792893219,23.2071068 C1.18341751,23.5976311 1.81658249,23.5976311 2.20710678,23.2071068 L23.2071068,2.20710678 C23.5976311,1.81658249 23.5976311,1.18341751 23.2071068,0.792893219 C22.8165825,0.402368927 22.1834175,0.402368927 21.7928932,0.792893219 Z"/>
  </g>
</svg>
